<svg width="1280" height="720" xmlns="http://www.w3.org/2000/svg" xmlns:xlink="http://www.w3.org/1999/xlink" overflow="hidden"><defs><clipPath id="clip0"><rect x="0" y="0" width="1280" height="720"/></clipPath></defs><g clip-path="url(#clip0)"><rect x="0" y="0" width="1280" height="720" fill="#FFFFFF"/><path d="M459.127 328.439 438.899 364.831 462.118 364.831ZM471.573 314.256 472.283 332.24 475.258 367.67C475.931 375.783 476.829 381.014 477.95 383.363 479.071 385.713 481.025 386.887 483.81 386.887 484.528 386.887 486.892 386.785 490.902 386.58L490.046 391.926 464.672 395.969 462.556 370.734 436.241 370.734C430.978 379.854 425.863 386.339 420.898 390.191 415.933 394.043 409.989 395.969 403.065 395.969 396.473 395.969 390.659 393.563 385.626 388.751L393.748 380.713C397.266 385.694 401.46 388.185 406.328 388.185 411.079 388.185 415.595 386.161 419.876 382.114 424.157 378.067 430.018 370.582 437.458 359.657L457.405 323.434C454.292 323.115 451.446 322.956 448.869 322.956 442.032 322.956 436.783 324.642 433.121 328.015 429.459 331.387 427.628 336.45 427.628 343.203L415.444 348.576C416.111 341.211 417.964 335.355 421.003 331.008 424.361 326.165 428.31 322.722 432.851 320.681 437.391 318.639 443.888 317.325 452.34 316.739 454.004 316.637 456.549 316.447 459.974 316.17ZM368.608 314.256C376.589 314.256 384.277 315.37 391.674 317.596L387.045 333.414 381.956 333.414C382.297 331.023 382.467 329.36 382.467 328.425 382.467 325.865 380.972 323.735 377.98 322.033 374.989 320.332 370.997 319.481 366.005 319.481 358.536 319.481 351.968 322.845 346.3 329.572 342.512 334.061 339.41 339.665 336.993 346.383 334.576 353.101 333.367 359.46 333.367 365.461 333.367 372.582 335.203 378.149 338.875 382.163 342.547 386.178 347.598 388.185 354.027 388.185 361.455 388.185 369.875 386.275 379.286 382.455L378.17 389.112C366.832 393.684 356.988 395.969 348.639 395.969 339.532 395.969 332.454 393.393 327.407 388.24 322.359 383.087 319.836 375.876 319.836 366.609 319.836 352.104 324.587 339.753 334.089 329.554 343.591 319.356 355.097 314.256 368.608 314.256Z" fill="#333F50" fill-rule="evenodd"/><path d="M458.764 330.123 439.763 364.338 461.575 364.331ZM459.232 327.95C459.448 327.996 459.607 328.178 459.625 328.398L462.616 364.79C462.628 364.929 462.581 365.067 462.486 365.169 462.391 365.272 462.258 365.331 462.118 365.331L438.914 365.338C438.736 365.339 438.572 365.245 438.482 365.092 438.393 364.939 438.39 364.751 438.476 364.596L458.69 328.196C458.797 328.004 459.017 327.904 459.232 327.95ZM471.096 314.842 460.014 316.668 455.577 317.024 452.398 317.274 446.496 317.832 441.285 318.699 436.833 319.809 433.059 321.17 429.902 322.925 426.888 325.196 424.058 327.958 421.471 331.276 419.427 334.807 417.837 338.832 416.721 343.409 416.098 347.768 427.184 342.878 427.477 338.431C427.479 338.4 427.484 338.369 427.492 338.339L428.554 334.214C428.563 334.181 428.575 334.149 428.59 334.118L430.277 330.681C430.295 330.644 430.318 330.609 430.344 330.578L432.782 327.703C432.808 327.672 432.837 327.645 432.869 327.622L435.869 325.434C435.898 325.413 435.929 325.395 435.962 325.381L439.649 323.756C439.679 323.743 439.71 323.733 439.742 323.726L443.929 322.788C443.955 322.782 443.98 322.779 444.006 322.777L448.929 322.464 453.018 322.59 457.455 322.965C457.624 322.979 457.774 323.078 457.854 323.227 457.934 323.377 457.933 323.556 457.852 323.704L437.884 360.002 432.563 367.513 427.864 373.779 423.776 378.808 420.232 382.536 416.982 385.224C416.958 385.243 416.933 385.261 416.906 385.276L413.531 387.151C413.503 387.166 413.474 387.179 413.444 387.189L410.006 388.314C409.973 388.325 409.939 388.332 409.904 388.336L406.404 388.711C406.366 388.715 406.327 388.714 406.289 388.71L402.789 388.272C402.742 388.266 402.695 388.254 402.652 388.235L399.339 386.797C399.301 386.781 399.266 386.76 399.233 386.734L396.233 384.422C396.204 384.399 396.177 384.374 396.154 384.345L393.753 381.453 386.408 388.741 389.817 391.545 393.98 393.749 398.385 395.095 403.105 395.524 408.027 395.155 412.634 394.111 416.8 392.334 420.607 389.817 424.286 386.51 428.07 382.171 431.927 376.824 435.864 370.511C435.955 370.365 436.116 370.276 436.288 370.276L462.601 370.276C462.861 370.276 463.077 370.475 463.099 370.734L465.179 395.447 489.661 391.527 490.328 387.116 488.256 387.213 486.184 387.338 484.663 387.401 483.787 387.397 481.849 387.147C481.81 387.142 481.771 387.132 481.734 387.118L480.109 386.493C480.056 386.472 480.006 386.443 479.963 386.406L478.65 385.281C478.616 385.251 478.585 385.216 478.56 385.178L477.56 383.678C477.537 383.644 477.518 383.606 477.504 383.567L476.673 381.188 475.981 377.783 475.353 373.326 474.79 367.756 471.789 332.296ZM368.635 314.756 363.734 315.021 358.983 315.696 354.46 316.933 350.082 318.532 345.935 320.696 341.918 323.288 338.136 326.386 334.483 329.91 331.196 333.816 328.286 337.897 325.871 342.164 323.888 346.684 322.338 351.325 321.222 356.211 320.6 361.362 320.349 366.613 320.846 373.133 322.262 378.798 324.531 383.765 327.772 387.923 331.872 391.227 336.712 393.617 342.307 395.031 348.666 395.525 355.135 395.097 362.217 393.794 369.805 391.681 377.778 388.782 378.661 383.223 372.548 385.445 365.999 387.269 359.821 388.337 354.071 388.712C354.046 388.714 354.022 388.714 353.997 388.712L349.435 388.337C349.403 388.334 349.371 388.328 349.341 388.32L345.341 387.195C345.307 387.185 345.274 387.172 345.243 387.156L341.681 385.281C341.646 385.263 341.614 385.241 341.584 385.215L338.584 382.59C338.557 382.566 338.532 382.539 338.511 382.51L336.073 379.197C336.05 379.166 336.031 379.133 336.016 379.098L334.329 375.16C334.318 375.134 334.309 375.107 334.302 375.08L333.24 370.642C333.233 370.614 333.229 370.586 333.227 370.557L332.914 365.436 333.168 360.835 333.802 356.1 334.938 351.246 336.575 346.214 338.527 341.367 340.736 336.891 343.205 332.845 345.997 329.235 350.372 324.86C350.395 324.837 350.42 324.816 350.447 324.798L355.197 321.611C355.231 321.588 355.266 321.57 355.304 321.556L360.429 319.681C360.466 319.668 360.505 319.659 360.544 319.654L365.981 319.029C366.016 319.025 366.05 319.025 366.084 319.028L372.834 319.653C372.878 319.657 372.921 319.667 372.961 319.682L378.211 321.619C378.253 321.635 378.292 321.655 378.328 321.681L380.265 323.056C380.294 323.076 380.321 323.1 380.344 323.126L381.719 324.626C381.749 324.658 381.775 324.694 381.795 324.733L382.67 326.421C382.696 326.471 382.713 326.526 382.721 326.583L382.971 328.395C382.976 328.428 382.977 328.462 382.975 328.496L382.847 330.462 382.541 332.963 386.726 332.963 391.102 318.002 386.014 316.643 380.355 315.647 374.584 314.963ZM471.492 313.763C471.633 313.74 471.778 313.778 471.889 313.869 472 313.959 472.067 314.093 472.073 314.237L472.788 332.256 475.787 367.671 476.348 373.226 476.971 377.644 477.653 380.989 478.426 383.175 479.354 384.566 480.548 385.59 482.037 386.163 483.915 386.405 484.663 386.401 486.143 386.339 488.196 386.214 490.89 386.089C491.04 386.082 491.185 386.142 491.285 386.254 491.385 386.365 491.43 386.515 491.408 386.663L490.595 392.038C490.563 392.253 490.395 392.423 490.18 392.457L464.805 396.52C464.668 396.542 464.527 396.505 464.418 396.42 464.308 396.334 464.239 396.207 464.228 396.068L462.141 371.276 436.566 371.276 432.775 377.353 428.881 382.756 425.04 387.167 421.248 390.585C421.229 390.602 421.21 390.617 421.189 390.631L417.314 393.193C417.289 393.21 417.262 393.224 417.235 393.236L412.985 395.048C412.957 395.06 412.928 395.069 412.899 395.076L408.211 396.139C408.187 396.144 408.163 396.148 408.138 396.15L403.138 396.525C403.111 396.527 403.083 396.526 403.056 396.524L398.243 396.086C398.209 396.083 398.175 396.077 398.142 396.067L393.642 394.692C393.612 394.682 393.582 394.67 393.554 394.655L389.304 392.405C389.275 392.39 389.247 392.371 389.221 392.35L385.346 389.162C385.237 389.072 385.171 388.94 385.164 388.799 385.157 388.658 385.211 388.521 385.311 388.421L393.436 380.359C393.536 380.26 393.672 380.207 393.812 380.214 393.953 380.221 394.083 380.286 394.173 380.394L396.888 383.664 399.794 385.905 402.984 387.289 406.355 387.71 409.745 387.347 413.087 386.253 416.38 384.424 419.595 381.766 423.051 378.119 427.088 373.148 431.763 366.913 437.068 359.424 456.604 323.897 452.934 323.587 448.898 323.463 444.11 323.772 440.008 324.691 436.414 326.274 433.506 328.395 431.147 331.177 429.51 334.513 428.472 338.543 428.162 343.246C428.15 343.432 428.036 343.596 427.865 343.671L415.678 349.046C415.511 349.119 415.319 349.097 415.174 348.987 415.029 348.877 414.955 348.698 414.981 348.518L415.731 343.268 416.865 338.595 418.511 334.405C418.52 334.382 418.531 334.36 418.543 334.338L420.606 330.775 423.269 327.344 426.189 324.481 429.3 322.127 432.607 320.277C432.631 320.264 432.656 320.252 432.681 320.243L436.494 318.868 441.042 317.728 446.331 316.845 452.304 316.278 455.499 316.027 459.934 315.672ZM368.581 313.757 374.618 313.964 380.472 314.654 386.187 315.659 391.855 317.168C391.985 317.203 392.095 317.288 392.162 317.406 392.228 317.523 392.244 317.662 392.206 317.791L387.581 333.604C387.518 333.817 387.323 333.963 387.101 333.963L381.976 333.963C381.833 333.963 381.696 333.902 381.601 333.795 381.507 333.688 381.462 333.545 381.48 333.403L381.855 330.34 381.974 328.482 381.742 326.805 380.938 325.252 379.643 323.84 377.803 322.535 372.677 320.643 366.044 320.029 360.717 320.641 355.704 322.475 351.045 325.602 346.704 329.942 343.997 333.456 341.59 337.411 339.424 341.81 337.502 346.588 335.889 351.556 334.775 356.327 334.159 360.967 333.913 365.491 334.222 370.452 335.265 374.806 336.913 378.651 339.284 381.873 342.198 384.423 345.662 386.246 349.565 387.344 354.043 387.712 359.756 387.34 365.828 386.283 372.279 384.482 379.117 381.994C379.284 381.933 379.47 381.965 379.607 382.078 379.743 382.19 379.81 382.367 379.782 382.542L378.72 389.229C378.691 389.409 378.568 389.559 378.397 389.621L370.147 392.621 362.485 394.758 355.316 396.08 348.697 396.525C348.673 396.526 348.649 396.526 348.625 396.524L342.187 396.024C342.159 396.022 342.131 396.018 342.103 396.011L336.416 394.573C336.382 394.565 336.349 394.552 336.317 394.537L331.38 392.099C331.347 392.083 331.316 392.063 331.287 392.04L327.1 388.665C327.07 388.641 327.043 388.614 327.019 388.583L323.707 384.333C323.683 384.303 323.662 384.269 323.646 384.234L321.334 379.171C321.321 379.143 321.311 379.114 321.303 379.085L319.866 373.335C319.859 373.307 319.854 373.28 319.852 373.251L319.352 366.689 319.601 361.315 320.229 356.091 321.363 351.102 322.939 346.368 324.955 341.763 327.416 337.405 330.381 333.236 333.718 329.267 337.441 325.666 341.284 322.514 345.392 319.856 349.619 317.645 354.116 315.994 358.719 314.731 363.593 314.031Z" fill="#333F50" fill-rule="evenodd"/><path d="M456.269 325.678 436.04 362.07 459.26 362.07ZM468.715 311.496 469.425 329.479 472.4 364.91C473.073 373.022 473.97 378.254 475.091 380.603 476.213 382.952 478.166 384.127 480.952 384.127 481.67 384.127 484.034 384.025 488.043 383.819L487.188 389.166 461.813 393.209 459.697 367.974 433.382 367.974C428.119 377.093 423.005 383.579 418.04 387.431 413.075 391.283 407.131 393.209 400.207 393.209 393.614 393.209 387.801 390.803 382.767 385.991L390.889 377.953C394.408 382.934 398.601 385.424 403.47 385.424 408.221 385.424 412.737 383.401 417.018 379.354 421.299 375.307 427.159 367.821 434.6 356.897L454.546 320.673C451.433 320.355 448.588 320.196 446.01 320.196 439.174 320.196 433.924 321.882 430.262 325.254 426.6 328.627 424.769 333.69 424.769 340.443L412.585 345.816C413.252 338.45 415.105 332.594 418.144 328.247 421.502 323.404 425.452 319.962 429.992 317.92 434.533 315.879 441.029 314.565 449.482 313.979 451.146 313.876 453.691 313.687 457.116 313.41ZM365.75 311.496C373.73 311.496 381.419 312.609 388.816 314.836L384.186 330.654 379.097 330.654C379.438 328.263 379.609 326.6 379.609 325.665 379.609 323.105 378.113 320.975 375.122 319.273 372.131 317.571 368.139 316.721 363.147 316.721 355.678 316.721 349.11 320.084 343.442 326.812 339.654 331.301 336.551 336.905 334.134 343.622 331.717 350.34 330.509 356.7 330.509 362.701 330.509 369.821 332.345 375.389 336.017 379.403 339.689 383.417 344.739 385.424 351.168 385.424 358.596 385.424 367.016 383.514 376.428 379.694L375.312 386.352C363.973 390.923 354.129 393.209 345.78 393.209 336.673 393.209 329.596 390.632 324.548 385.479 319.501 380.326 316.977 373.116 316.977 363.848 316.977 349.344 321.728 336.993 331.23 326.794 340.732 316.595 352.239 311.496 365.75 311.496Z" stroke="#333F50" stroke-linejoin="round" stroke-miterlimit="10" fill="#FF33CC" fill-rule="evenodd"/><text fill="#000000" fill-opacity="0" font-family="Arial,Arial_MSFontService,sans-serif" font-size="81.7129" x="316.977" y="382.995">CA</text><path d="M596.424 314.256C601.307 314.256 607.238 315.817 614.217 318.937L611.457 333.431 606.291 333.431C606.359 331.633 606.393 330.551 606.393 330.183 606.393 327.287 605.21 324.936 602.845 323.13 600.48 321.324 597.284 320.421 593.258 320.421 589.148 320.421 585.701 321.633 582.917 324.055 580.133 326.477 578.742 329.461 578.742 333.006 578.742 335.405 579.456 337.618 580.884 339.644 582.312 341.669 585.388 344.696 590.112 348.723L596.157 353.945C603.146 359.94 606.641 365.594 606.641 370.91 606.641 377.842 603.365 383.752 596.813 388.639 590.261 393.526 582.486 395.969 573.487 395.969 566.611 395.969 559.759 394.138 552.932 390.475L561.019 381.863C567.6 386.948 574.123 389.491 580.589 389.491 585.003 389.491 588.585 388.265 591.335 385.812 594.085 383.359 595.46 380.204 595.46 376.344 595.46 372.566 592.782 368.301 587.427 363.551L582.004 357.413C575.383 352.486 571.39 349.003 570.026 346.966 568.661 344.929 567.979 342.191 567.979 338.753 567.979 332.052 570.787 326.294 576.403 321.479 582.019 316.664 588.692 314.256 596.424 314.256ZM534.424 314.256C539.307 314.256 545.238 315.817 552.217 318.937L549.457 333.431 544.291 333.431C544.359 331.633 544.393 330.551 544.393 330.183 544.393 327.287 543.21 324.936 540.845 323.13 538.48 321.324 535.284 320.421 531.258 320.421 527.148 320.421 523.701 321.633 520.917 324.055 518.133 326.477 516.742 329.461 516.742 333.006 516.742 335.405 517.456 337.618 518.884 339.644 520.312 341.669 523.388 344.696 528.112 348.723L534.157 353.945C541.146 359.94 544.641 365.594 544.641 370.91 544.641 377.842 541.365 383.752 534.813 388.639 528.261 393.526 520.486 395.969 511.488 395.969 504.611 395.969 497.759 394.138 490.932 390.475L499.019 381.863C505.6 386.948 512.123 389.491 518.589 389.491 523.003 389.491 526.585 388.265 529.335 385.812 532.085 383.359 533.46 380.204 533.46 376.344 533.46 372.566 530.782 368.301 525.427 363.551L520.004 357.413C513.383 352.486 509.39 349.003 508.026 346.966 506.661 344.929 505.979 342.191 505.979 338.753 505.979 332.052 508.787 326.294 514.403 321.479 520.019 316.664 526.692 314.256 534.424 314.256Z" fill="#333F50" fill-rule="evenodd"/><path d="M534.423 314.758 528.936 315.208 523.835 316.56 519.105 318.772 514.742 321.906 511.121 325.65 508.554 329.683 507.03 334.073 506.541 338.775 507.028 343.276 508.47 346.761 509.878 348.409 512.422 350.767 515.842 353.629 520.342 357.066C520.367 357.086 520.391 357.108 520.412 357.132L525.829 363.235 529.372 366.784 531.872 370.034C531.893 370.061 531.912 370.091 531.927 370.122L533.427 373.247C533.447 373.289 533.461 373.334 533.469 373.38L533.969 376.317C533.976 376.36 533.978 376.403 533.974 376.446L533.724 379.196C533.721 379.23 533.714 379.263 533.705 379.295L532.955 381.795C532.943 381.832 532.928 381.869 532.908 381.903L531.595 384.153C531.576 384.185 531.554 384.215 531.529 384.243L529.716 386.18C529.696 386.202 529.673 386.222 529.649 386.24L527.462 387.865C527.431 387.887 527.399 387.906 527.364 387.921L524.802 389.046C524.775 389.058 524.748 389.067 524.72 389.074L521.907 389.762C521.881 389.768 521.854 389.772 521.827 389.774L518.64 390.024C518.61 390.027 518.58 390.026 518.55 390.023L513.675 389.523C513.644 389.52 513.614 389.514 513.584 389.506L508.709 388.068C508.683 388.06 508.657 388.05 508.632 388.038L503.697 385.629 499.113 382.553 491.813 390.363 496.262 392.428 501.321 394.16 506.45 395.152 511.505 395.527 517.963 395.092 523.947 393.674 529.497 391.392 534.549 388.25 538.791 384.439 541.784 380.346 543.55 375.839 544.159 370.971 543.555 367.05 541.609 362.974 538.413 358.734 533.836 354.342 527.832 349.15 524.573 346.267 521.929 343.812 519.895 341.71 518.52 339.96C518.501 339.935 518.484 339.909 518.47 339.882L516.845 336.757C516.819 336.707 516.801 336.652 516.793 336.597L516.293 333.097C516.288 333.057 516.287 333.017 516.291 332.977L516.541 330.415C516.545 330.375 516.553 330.336 516.567 330.298L517.379 327.985C517.391 327.951 517.407 327.919 517.425 327.888L518.738 325.763C518.755 325.735 518.776 325.709 518.798 325.684L520.611 323.747C520.631 323.725 520.654 323.705 520.678 323.687L522.865 322.062C522.893 322.042 522.923 322.024 522.954 322.009L525.391 320.884C525.423 320.87 525.456 320.859 525.49 320.851L528.308 320.215 531.246 319.965C531.281 319.962 531.316 319.963 531.351 319.967L536.789 320.655C536.843 320.662 536.895 320.677 536.944 320.701L541.069 322.701C541.113 322.722 541.154 322.75 541.189 322.783L542.752 324.22C542.781 324.247 542.807 324.278 542.829 324.311L543.954 325.999C543.979 326.036 543.999 326.076 544.013 326.118L544.638 327.993C544.648 328.025 544.656 328.057 544.66 328.091L544.913 330.213 544.913 331.29 544.865 332.963 549.062 332.963 551.659 319.27 547.077 317.378 542.5 315.953 538.309 315.087ZM596.423 314.758 590.936 315.208 585.835 316.56 581.105 318.772 576.742 321.906 573.12 325.65 570.554 329.683 569.03 334.073 568.541 338.775 569.028 343.276 570.47 346.761 571.878 348.409 574.422 350.767 577.842 353.629 582.342 357.066C582.367 357.086 582.391 357.108 582.412 357.132L587.829 363.235 591.372 366.784 593.872 370.034C593.893 370.061 593.912 370.091 593.927 370.122L595.427 373.247C595.447 373.289 595.461 373.334 595.469 373.38L595.969 376.317C595.976 376.36 595.978 376.403 595.974 376.446L595.724 379.196C595.721 379.23 595.714 379.263 595.705 379.295L594.955 381.795C594.943 381.832 594.928 381.869 594.908 381.903L593.595 384.153C593.576 384.185 593.554 384.215 593.529 384.243L591.716 386.18C591.696 386.202 591.673 386.222 591.649 386.24L589.462 387.865C589.431 387.887 589.399 387.906 589.364 387.921L586.802 389.046C586.775 389.058 586.748 389.067 586.72 389.074L583.907 389.762C583.881 389.768 583.854 389.772 583.827 389.774L580.64 390.024C580.61 390.027 580.58 390.026 580.55 390.023L575.675 389.523C575.644 389.52 575.614 389.514 575.584 389.506L570.709 388.068C570.683 388.06 570.657 388.05 570.632 388.038L565.697 385.629 561.113 382.553 553.813 390.363 558.262 392.428 563.32 394.16 568.45 395.152 573.505 395.527 579.963 395.092 585.947 393.674 591.497 391.392 596.549 388.25 600.79 384.439 603.784 380.346 605.55 375.839 606.159 370.971 605.555 367.05 603.609 362.974 600.413 358.734 595.836 354.342 589.832 349.15 586.573 346.267 583.929 343.812 581.895 341.71 580.52 339.96C580.501 339.935 580.484 339.909 580.47 339.882L578.845 336.757C578.819 336.707 578.801 336.652 578.793 336.597L578.293 333.097C578.288 333.057 578.287 333.017 578.291 332.977L578.541 330.415C578.545 330.375 578.553 330.336 578.567 330.298L579.379 327.985C579.391 327.951 579.407 327.919 579.425 327.888L580.738 325.763C580.755 325.735 580.776 325.709 580.798 325.684L582.611 323.747C582.631 323.725 582.654 323.705 582.678 323.687L584.865 322.062C584.893 322.042 584.923 322.024 584.954 322.009L587.391 320.884C587.423 320.87 587.456 320.859 587.49 320.851L590.308 320.215 593.246 319.965C593.281 319.962 593.316 319.963 593.351 319.967L598.789 320.655C598.843 320.662 598.895 320.677 598.944 320.701L603.069 322.701C603.113 322.722 603.154 322.75 603.189 322.783L604.752 324.22C604.781 324.247 604.807 324.278 604.829 324.311L605.954 325.999C605.979 326.036 605.999 326.076 606.013 326.118L606.638 327.993C606.648 328.025 606.656 328.057 606.66 328.091L606.913 330.213 606.913 331.29 606.865 332.963 611.062 332.963 613.659 319.27 609.077 317.378 604.5 315.953 600.309 315.087ZM596.383 313.758C596.41 313.756 596.438 313.756 596.466 313.758L600.393 314.09 604.702 314.974 609.374 316.423 614.417 318.501C614.636 318.592 614.761 318.824 614.717 319.057L611.967 333.557C611.922 333.793 611.716 333.963 611.476 333.963L606.351 333.963C606.216 333.963 606.086 333.909 605.992 333.812 605.898 333.715 605.847 333.584 605.851 333.449L605.914 331.262 605.913 330.213 605.673 328.262 605.085 326.498 604.031 324.916 602.567 323.569 598.582 321.637 593.278 320.966 590.393 321.212 587.763 321.814 585.42 322.896 583.31 324.463 581.563 326.331 580.305 328.368 579.53 330.572 579.292 333.015 579.771 336.371 581.335 339.379 582.682 341.092 584.647 343.115 587.254 345.535 590.495 348.401 596.49 353.585 601.135 358.04C601.154 358.059 601.172 358.079 601.188 358.1L604.438 362.413C604.458 362.439 604.475 362.468 604.49 362.498L606.49 366.685C606.511 366.73 606.525 366.777 606.533 366.825L607.158 370.887C607.165 370.933 607.165 370.98 607.16 371.025L606.535 376.025C606.529 376.067 606.519 376.107 606.504 376.146L604.691 380.771C604.676 380.811 604.655 380.849 604.629 380.884L601.567 385.071C601.547 385.099 601.523 385.125 601.498 385.148L597.185 389.023C597.163 389.042 597.14 389.06 597.115 389.076L591.99 392.263C591.966 392.278 591.942 392.29 591.916 392.301L586.291 394.613C586.267 394.623 586.242 394.631 586.216 394.637L580.154 396.075C580.127 396.081 580.099 396.085 580.072 396.087L573.572 396.525 568.377 396.15 563.131 395.142 557.939 393.374 552.766 390.98C552.62 390.912 552.516 390.779 552.485 390.622 552.454 390.464 552.501 390.302 552.611 390.185L560.673 381.56C560.841 381.38 561.113 381.349 561.317 381.486L566.254 384.798 571.032 387.121 575.823 388.533 580.607 389.024 583.709 388.781 586.44 388.113 588.911 387.028 591.017 385.464 592.76 383.6 594.014 381.45 594.732 379.056 594.972 376.421 594.495 373.617 593.048 370.602 590.58 367.393 587.122 363.942 581.697 357.832 577.235 354.423 573.78 351.534 571.198 349.143 569.659 347.351C569.624 347.311 569.597 347.266 569.576 347.217L568.076 343.592C568.058 343.548 568.046 343.502 568.041 343.455L567.541 338.83C567.537 338.795 567.537 338.759 567.541 338.724L568.041 333.912C568.045 333.874 568.053 333.836 568.066 333.799L569.629 329.299C569.641 329.263 569.658 329.228 569.679 329.195L572.304 325.07C572.322 325.042 572.343 325.015 572.366 324.991L576.054 321.178C576.075 321.157 576.097 321.137 576.122 321.12L580.559 317.932C580.584 317.914 580.611 317.899 580.639 317.886L585.452 315.636C585.479 315.623 585.507 315.613 585.535 315.605L590.723 314.23C590.751 314.223 590.781 314.218 590.81 314.215ZM534.383 313.758C534.41 313.756 534.438 313.756 534.466 313.758L538.393 314.09 542.702 314.974 547.374 316.423 552.417 318.501C552.636 318.592 552.761 318.824 552.717 319.057L549.967 333.557C549.922 333.793 549.716 333.963 549.476 333.963L544.351 333.963C544.216 333.963 544.086 333.909 543.992 333.812 543.898 333.715 543.847 333.584 543.851 333.449L543.914 331.262 543.913 330.213 543.673 328.262 543.085 326.498 542.031 324.916 540.567 323.569 536.582 321.637 531.278 320.966 528.393 321.212 525.763 321.814 523.42 322.896 521.31 324.463 519.563 326.331 518.305 328.368 517.53 330.572 517.292 333.015 517.771 336.371 519.335 339.379 520.682 341.092 522.647 343.115 525.254 345.535 528.495 348.401 534.49 353.585 539.135 358.04C539.154 358.059 539.172 358.079 539.188 358.1L542.438 362.413C542.458 362.439 542.475 362.468 542.49 362.498L544.49 366.685C544.511 366.73 544.525 366.777 544.533 366.825L545.158 370.887C545.165 370.933 545.165 370.98 545.16 371.025L544.535 376.025C544.529 376.067 544.519 376.107 544.504 376.146L542.691 380.771C542.676 380.811 542.655 380.849 542.629 380.884L539.567 385.071C539.547 385.099 539.523 385.125 539.498 385.148L535.185 389.023C535.163 389.042 535.14 389.06 535.115 389.076L529.99 392.263C529.966 392.278 529.942 392.29 529.916 392.301L524.291 394.613C524.267 394.623 524.242 394.631 524.216 394.637L518.154 396.075C518.127 396.081 518.1 396.085 518.072 396.087L511.572 396.525 506.377 396.15 501.131 395.142 495.939 393.374 490.766 390.98C490.62 390.912 490.516 390.779 490.485 390.622 490.454 390.464 490.501 390.302 490.611 390.185L498.673 381.56C498.841 381.38 499.113 381.349 499.317 381.486L504.254 384.798 509.032 387.121 513.823 388.533 518.607 389.024 521.709 388.781 524.44 388.113 526.911 387.028 529.017 385.464 530.76 383.6 532.014 381.45 532.732 379.056 532.972 376.421 532.495 373.617 531.048 370.602 528.58 367.393 525.122 363.942 519.697 357.832 515.235 354.423 511.78 351.534 509.198 349.143 507.659 347.351C507.624 347.311 507.597 347.266 507.576 347.217L506.076 343.592C506.058 343.548 506.046 343.502 506.041 343.455L505.541 338.83C505.537 338.795 505.537 338.759 505.541 338.724L506.041 333.912C506.045 333.874 506.053 333.836 506.066 333.799L507.629 329.299C507.641 329.263 507.658 329.228 507.679 329.195L510.304 325.07C510.322 325.042 510.343 325.015 510.366 324.991L514.054 321.178C514.075 321.157 514.097 321.137 514.122 321.12L518.559 317.932C518.584 317.914 518.611 317.899 518.639 317.886L523.452 315.636C523.479 315.623 523.507 315.613 523.535 315.605L528.723 314.23C528.751 314.223 528.781 314.218 528.81 314.215Z" fill="#333F50" fill-rule="evenodd"/><path d="M593.565 311.496C598.448 311.496 604.38 313.056 611.358 316.177L608.599 330.67 603.432 330.67C603.5 328.873 603.534 327.79 603.534 327.423 603.534 324.527 602.352 322.175 599.986 320.37 597.621 318.564 594.426 317.661 590.399 317.661 586.289 317.661 582.842 318.872 580.059 321.295 577.275 323.717 575.883 326.701 575.883 330.246 575.883 332.645 576.597 334.857 578.026 336.883 579.454 338.909 582.53 341.935 587.254 345.962L593.298 351.185C600.288 357.179 603.782 362.834 603.782 368.15 603.782 375.082 600.506 380.992 593.954 385.879 587.403 390.766 579.627 393.209 570.629 393.209 563.752 393.209 556.9 391.377 550.073 387.714L558.161 379.103C564.741 384.188 571.264 386.73 577.73 386.73 582.144 386.73 585.726 385.504 588.476 383.052 591.227 380.599 592.602 377.443 592.602 373.584 592.602 369.805 589.924 365.541 584.568 360.791L579.145 354.652C572.525 349.725 568.532 346.243 567.167 344.206 565.803 342.168 565.12 339.431 565.12 335.993 565.12 329.292 567.928 323.534 573.544 318.719 579.16 313.904 585.834 311.496 593.565 311.496ZM531.565 311.496C536.448 311.496 542.38 313.056 549.358 316.177L546.599 330.67 541.432 330.67C541.5 328.873 541.534 327.79 541.534 327.423 541.534 324.527 540.352 322.175 537.986 320.37 535.621 318.564 532.426 317.661 528.399 317.661 524.289 317.661 520.842 318.872 518.059 321.295 515.275 323.717 513.883 326.701 513.883 330.246 513.883 332.645 514.597 334.857 516.026 336.883 517.454 338.909 520.53 341.935 525.254 345.962L531.298 351.185C538.288 357.179 541.782 362.834 541.782 368.15 541.782 375.082 538.506 380.992 531.954 385.879 525.403 390.766 517.627 393.209 508.629 393.209 501.752 393.209 494.9 391.377 488.073 387.714L496.161 379.103C502.741 384.188 509.264 386.73 515.73 386.73 520.144 386.73 523.726 385.504 526.476 383.052 529.227 380.599 530.602 377.443 530.602 373.584 530.602 369.805 527.924 365.541 522.568 360.791L517.145 354.652C510.525 349.725 506.532 346.243 505.167 344.206 503.803 342.168 503.12 339.431 503.12 335.993 503.12 329.292 505.928 323.534 511.544 318.719 517.16 313.904 523.834 311.496 531.565 311.496Z" stroke="#333F50" stroke-linejoin="round" stroke-miterlimit="10" fill="#CC00CC" fill-rule="evenodd"/><text fill="#000000" fill-opacity="0" font-family="Arial,Arial_MSFontService,sans-serif" font-size="81.7129" x="488.073" y="382.995">SS</text><path d="M714.166 319.638C705.679 319.638 698.33 324.155 692.118 333.189 685.907 342.223 682.796 353.122 682.785 365.885 682.795 382.214 688.252 390.379 699.156 390.379 707.661 390.379 715.006 385.807 721.192 376.662 727.378 367.517 730.476 356.491 730.486 343.586 730.476 327.621 725.036 319.638 714.166 319.638ZM636.851 316.19 671.723 316.19 663.293 325.855 655.389 325.855 648.333 361.276C646.056 372.66 640.331 380.658 631.158 385.27L651.082 385.752 643.06 395.342 609.603 393.994 617.893 384.394 621.762 384.394C625.304 384.394 627.929 383.226 629.638 380.892 631.346 378.557 632.92 373.726 634.359 366.399L642.691 325.855 628.811 325.855ZM715.929 314.256C724.581 314.256 731.443 316.934 736.514 322.289 741.586 327.645 744.122 334.856 744.122 343.925 744.122 358.173 739.523 370.409 730.325 380.633 721.127 390.857 710.079 395.969 697.182 395.969 688.474 395.969 681.573 393.254 676.478 387.824 671.383 382.393 668.836 375.066 668.836 365.84 668.836 352.148 673.55 340.127 682.978 329.779 692.406 319.431 703.39 314.256 715.929 314.256Z" fill="#333F50" fill-rule="evenodd"/><path d="M714.157 320.139 711.172 320.335 708.148 321.014 705.337 322.057 702.586 323.53 699.883 325.377 697.373 327.647 694.908 330.362 692.564 333.512 688.555 340.552 685.645 348.29 683.903 356.814 683.287 365.935 683.538 371.629 684.344 376.507 685.566 380.649 687.329 383.993 689.56 386.585 692.265 388.388 695.461 389.534 699.173 389.9 702.218 389.717 705.241 389.038 708.053 387.994 710.803 386.522 713.5 384.617 716.016 382.342 718.477 379.569 720.825 376.415 724.832 369.254 727.681 361.453 729.423 352.802 730.039 343.555 729.789 337.986 728.983 333.234 727.762 329.219 726 325.938 723.767 323.404 721.126 321.602 717.932 320.518ZM714.133 319.139C714.161 319.137 714.188 319.138 714.216 319.14L718.088 319.528C718.126 319.532 718.163 319.54 718.199 319.553L721.512 320.678C721.555 320.692 721.595 320.712 721.633 320.738L724.383 322.613C724.417 322.636 724.448 322.664 724.476 322.695L726.789 325.32C726.814 325.349 726.836 325.381 726.854 325.414L728.666 328.789C728.682 328.819 728.695 328.849 728.704 328.881L729.969 333.068 730.788 337.941 731.037 343.622 730.404 353 728.654 361.687C728.649 361.712 728.642 361.736 728.633 361.76L725.758 369.635C725.749 369.66 725.738 369.685 725.725 369.708L721.627 377.012 719.225 380.233 716.686 383.085 714.076 385.435 711.274 387.405 708.399 388.932 705.46 390.014 702.398 390.701C702.372 390.707 702.345 390.711 702.318 390.713L699.193 390.9C699.167 390.902 699.141 390.901 699.114 390.899L695.302 390.524C695.261 390.52 695.221 390.51 695.182 390.497L691.87 389.309C691.831 389.295 691.795 389.277 691.761 389.254L688.949 387.379C688.911 387.354 688.877 387.324 688.847 387.29L686.534 384.602C686.51 384.574 686.489 384.542 686.471 384.509L684.659 381.072C684.643 381.042 684.631 381.011 684.621 380.98L683.358 376.67 682.539 371.673 682.29 365.867 682.924 356.613 684.674 348.051C684.679 348.025 684.686 348 684.695 347.975L687.633 340.162C687.642 340.138 687.653 340.114 687.667 340.091L691.762 332.915 694.168 329.69 696.703 326.905 699.319 324.55 702.116 322.647 704.99 321.119 707.929 320.038 710.991 319.351C711.017 319.345 711.042 319.341 711.068 319.34ZM637.085 316.69 629.874 325.359 642.728 325.401C642.878 325.401 643.019 325.469 643.114 325.586 643.208 325.702 643.246 325.855 643.216 326.001L634.901 366.509 633.77 371.597 632.629 375.708 631.379 378.896C631.37 378.919 631.359 378.94 631.347 378.962L630.097 381.149C630.079 381.182 630.057 381.212 630.031 381.24L628.594 382.802C628.56 382.838 628.521 382.87 628.479 382.895L626.666 383.957C626.635 383.976 626.602 383.991 626.567 384.002L624.442 384.689C624.404 384.701 624.365 384.709 624.326 384.712L621.788 384.901 618.143 384.901 610.714 393.569 642.874 394.891 650.057 386.25 631.151 385.776C630.932 385.77 630.742 385.623 630.682 385.412 630.623 385.201 630.707 384.976 630.891 384.857L637.088 380.829 641.943 375.544 645.574 369.019 647.861 361.178 654.923 325.803C654.97 325.569 655.175 325.401 655.413 325.401L663.122 325.401 670.633 316.713ZM636.851 315.69 671.726 315.713C671.922 315.714 672.099 315.828 672.181 316.006 672.262 316.184 672.232 316.393 672.104 316.54L663.729 326.228C663.634 326.338 663.496 326.401 663.351 326.401L655.823 326.401 648.841 361.374 646.518 369.353C646.508 369.389 646.493 369.424 646.475 369.457L642.788 376.082C642.769 376.116 642.746 376.148 642.719 376.177L637.782 381.552C637.753 381.583 637.721 381.61 637.686 381.633L632.788 384.817 651.113 385.276C651.305 385.281 651.477 385.395 651.556 385.569 651.635 385.744 651.608 385.948 651.485 386.096L643.485 395.721C643.386 395.84 643.236 395.907 643.08 395.901L609.643 394.526C609.451 394.518 609.281 394.401 609.205 394.226 609.128 394.05 609.159 393.846 609.284 393.701L617.534 384.076C617.629 383.965 617.767 383.901 617.913 383.901L621.788 383.901 624.191 383.719 626.208 383.067 627.909 382.07 629.257 380.604 630.461 378.497 631.698 375.343 632.807 371.33 633.925 366.293 642.113 326.399 628.809 326.355C628.615 326.354 628.44 326.242 628.358 326.067 628.276 325.891 628.302 325.684 628.426 325.535L636.466 315.87C636.561 315.755 636.703 315.689 636.851 315.69ZM715.923 314.758 711.433 315.019 706.982 315.759 702.663 316.927 698.528 318.59 694.57 320.751 690.675 323.407 686.958 326.564 683.421 330.16 680.136 334.062 677.285 338.15 674.869 342.356 672.886 346.75 671.337 351.266 670.222 355.964 669.6 360.863 669.349 365.863 669.846 372.384 671.262 378.109 673.594 383.141 676.905 387.494 680.948 390.986 685.663 393.497 691.127 395.032 697.2 395.527 701.901 395.282 706.401 394.608 710.735 393.371 714.926 391.773 718.945 389.612 722.778 387.02 726.432 383.926 729.965 380.333 733.19 376.429 735.975 372.41 738.329 368.141 740.25 363.686 741.737 359.044 742.793 354.209 743.476 349.196 743.665 344.002 743.168 337.607 741.753 331.944 739.421 326.973 736.173 322.684 732.131 319.255 727.415 316.744 722.013 315.27ZM715.9 313.757C715.923 313.756 715.947 313.756 715.971 313.758L722.143 314.278C722.173 314.28 722.203 314.286 722.232 314.294L727.732 315.794C727.768 315.803 727.803 315.817 727.836 315.835L732.648 318.397C732.68 318.414 732.71 318.434 732.737 318.457L736.862 321.957C736.89 321.981 736.915 322.008 736.937 322.037L740.25 326.412C740.271 326.439 740.289 326.469 740.304 326.501L742.679 331.564C742.692 331.593 742.703 331.623 742.711 331.655L744.148 337.405C744.155 337.432 744.16 337.459 744.162 337.487L744.662 343.925 744.476 349.231 743.784 354.343 742.714 359.257 741.202 363.991 739.248 368.536 736.851 372.892 734.012 376.998 730.737 380.969 727.145 384.626 723.424 387.782 719.506 390.44 715.4 392.654 711.092 394.305 706.676 395.569 702.05 396.27 697.252 396.525 690.998 396.024C690.966 396.022 690.934 396.016 690.903 396.007L685.341 394.445C685.306 394.435 685.273 394.422 685.241 394.405L680.428 391.842C680.396 391.825 680.365 391.804 680.337 391.779L676.212 388.217C676.185 388.194 676.161 388.169 676.14 388.141L672.765 383.704C672.744 383.675 672.725 383.644 672.71 383.611L670.335 378.486C670.321 378.457 670.311 378.427 670.303 378.396L668.865 372.583C668.859 372.557 668.854 372.529 668.852 372.501L668.352 365.939 668.602 360.814 669.23 355.838 670.364 351.036 671.94 346.426 673.958 341.946 676.417 337.652 679.316 333.49 682.656 329.517 686.244 325.863 690.027 322.645 694.006 319.925 698.048 317.712 702.289 316 706.72 314.793 711.269 314.033Z" fill="#333F50" fill-rule="evenodd"/><path d="M711.307 316.877C702.821 316.877 695.471 321.395 689.26 330.429 683.048 339.463 679.937 350.361 679.927 363.124 679.937 379.454 685.394 387.619 696.298 387.619 704.803 387.619 712.148 383.046 718.334 373.901 724.519 364.756 727.617 353.731 727.628 340.826 727.618 324.86 722.178 316.877 711.307 316.877ZM633.992 313.429 668.865 313.429 660.435 323.095 652.531 323.095 645.474 358.516C643.197 369.9 637.472 377.898 628.299 382.509L648.224 382.992 640.201 392.582 606.744 391.233 615.034 381.633 618.904 381.633C622.446 381.633 625.071 380.466 626.779 378.131 628.487 375.797 630.061 370.966 631.5 363.638L639.833 323.095 625.952 323.095ZM713.071 311.496C721.722 311.496 728.584 314.174 733.656 319.529 738.728 324.884 741.264 332.096 741.264 341.164 741.264 355.412 736.665 367.648 727.467 377.873 718.269 388.097 707.221 393.209 694.323 393.209 685.616 393.209 678.714 390.494 673.62 385.063 668.525 379.633 665.977 372.305 665.977 363.08 665.977 349.387 670.691 337.367 680.12 327.018 689.548 316.67 700.532 311.496 713.071 311.496Z" stroke="#333F50" stroke-linejoin="round" stroke-miterlimit="10" fill="#CC00FF" fill-rule="evenodd"/><text fill="#000000" fill-opacity="0" font-family="Arial,Arial_MSFontService,sans-serif" font-size="81.7129" x="606.744" y="382.995">IO</text><path d="M879.25 316.19 910.478 316.19 905.639 332.742 900.547 332.742C900.82 330.644 900.957 329.107 900.957 328.13 900.957 325.957 899.553 324.408 896.745 323.482 893.937 322.556 888.515 322.093 880.48 322.093L879.791 322.093 874.044 350.254 896.898 350.254 890.972 357.642C882.854 356.652 877.444 356.158 874.741 356.158L873.079 356.158 872.165 360.851C870.943 367.197 869.073 372.241 866.557 375.984 864.04 379.728 860.181 382.84 854.981 385.323L878.572 386.169 883.318 386.304C889.008 386.304 894.765 384.406 900.588 380.609L899.676 386.227C893.27 392.722 887.236 395.969 881.575 395.969L879.201 395.919 833.572 393.991 841.757 384.359 843.072 384.359C847.951 384.359 851.289 383.375 853.087 381.407 854.886 379.439 856.482 374.904 857.878 367.802L867.187 322.25C861.127 322.25 856.041 324.037 851.927 327.611 847.814 331.186 845.757 335.857 845.757 341.626L845.757 343.392 833.675 348.607C834.555 337.203 838.751 328.948 846.263 323.845 853.775 318.741 864.77 316.19 879.25 316.19ZM798.567 316.19C809.597 316.19 817.565 317.429 822.474 319.909 827.382 322.388 829.837 326.564 829.837 332.437 829.837 337.012 828.188 341.655 824.892 346.365 821.595 351.075 817.658 354.497 813.082 356.63 806.973 359.899 800.254 361.533 792.925 361.533L790.496 361.533 792.903 356.309 794.409 356.309C800.688 356.309 805.941 354.256 810.17 350.151 814.399 346.046 816.514 340.941 816.514 334.835 816.514 325.888 810.332 321.414 797.97 321.414L789.89 362.056C787.787 372.743 782.147 380.512 772.972 385.36L792.69 385.741 784.99 395.342 751.572 393.994 759.81 384.423 760.176 384.423 762.379 384.455C766.737 384.455 769.766 383.221 771.465 380.754 773.164 378.287 774.819 373.052 776.428 365.049L785.119 322.355C779.095 322.355 774.02 324.141 769.892 327.713 765.765 331.286 763.701 336.068 763.701 342.06L763.753 343.478 751.623 348.696C752.61 336.988 756.854 328.643 764.355 323.662 771.857 318.68 783.261 316.19 798.567 316.19ZM904.783 291.477 901.227 301.469C892.466 305.846 885.728 309.325 881.011 311.905L882.791 305.651C887.569 301.625 894.9 296.9 904.783 291.477Z" fill="#333F50" fill-rule="evenodd"/><path d="M798.404 321.981 790.989 359.34 792.481 356.128C792.563 355.951 792.74 355.838 792.934 355.838L794.434 355.838 798.906 355.469 802.936 354.309 806.597 352.418 809.835 349.79 812.584 346.613 814.532 343.083 815.69 339.121 816.057 334.842 815.754 331.815 814.914 329.174 813.544 326.971 811.638 325.184 809.108 323.799 806.001 322.763 802.289 322.144ZM798.592 316.689 787.945 317.208 778.669 318.578 770.934 320.929 764.654 324.131 759.749 328.422 756.007 333.944 753.482 340.719 752.267 347.895 763.296 343.201 763.249 342.045 763.624 337.795C763.627 337.759 763.634 337.724 763.644 337.69L764.832 333.877C764.843 333.842 764.857 333.809 764.876 333.777L766.813 330.402C766.831 330.37 766.853 330.341 766.878 330.313L769.565 327.376C769.589 327.35 769.616 327.327 769.644 327.306L772.894 324.994C772.919 324.976 772.946 324.961 772.973 324.948L776.598 323.26C776.627 323.247 776.657 323.236 776.688 323.228L780.688 322.228C780.716 322.221 780.744 322.217 780.773 322.215L785.086 321.902C785.242 321.891 785.394 321.953 785.497 322.071 785.601 322.188 785.643 322.347 785.612 322.501L776.923 365.194 775.728 370.724 774.466 375.2 773.189 378.634 771.939 381.009C771.919 381.047 771.894 381.083 771.864 381.115L770.364 382.74C770.33 382.777 770.29 382.809 770.246 382.834L768.184 384.022C768.144 384.045 768.1 384.062 768.055 384.074L765.555 384.699C765.529 384.705 765.503 384.71 765.476 384.712L762.434 384.963 760.184 384.963 760.039 384.963 752.671 393.569 784.765 394.891 791.718 386.257 772.987 385.901C772.769 385.897 772.578 385.751 772.517 385.542 772.455 385.332 772.537 385.107 772.718 384.986L778.919 380.831 783.714 375.606 787.221 369.329 789.444 361.991 797.506 321.366C797.554 321.124 797.772 320.953 798.018 320.964L802.454 321.158 806.204 321.783C806.23 321.787 806.255 321.793 806.28 321.802L809.467 322.864C809.496 322.874 809.523 322.886 809.549 322.9L812.174 324.337C812.211 324.358 812.245 324.382 812.276 324.411L814.276 326.286C814.308 326.316 814.336 326.35 814.359 326.387L815.796 328.699C815.818 328.735 815.836 328.772 815.848 328.812L816.723 331.562C816.734 331.595 816.741 331.629 816.744 331.664L817.057 334.789C817.06 334.819 817.06 334.85 817.057 334.881L816.682 339.256C816.68 339.289 816.673 339.322 816.664 339.354L815.477 343.416C815.466 343.451 815.452 343.485 815.434 343.518L813.434 347.143C813.418 347.173 813.398 347.202 813.375 347.228L810.562 350.478C810.543 350.5 810.522 350.521 810.499 350.539L807.187 353.227C807.16 353.248 807.132 353.267 807.101 353.283L803.351 355.22C803.322 355.235 803.292 355.247 803.26 355.256L799.135 356.444C799.103 356.453 799.071 356.459 799.038 356.462L794.434 356.838 793.253 356.838 791.28 361.089 792.905 361.089 798.22 360.784 803.346 359.862 808.228 358.321 812.882 356.212 816.159 354.419 819.143 352.11 821.92 349.337 824.51 346.136 826.677 342.669 828.148 339.237 829.065 335.813 829.369 332.468 828.944 328.521 827.623 325.157 825.409 322.465 822.268 320.411 818.103 318.819 812.82 317.648 806.292 316.963ZM879.276 316.689 869.201 317.207 860.299 318.639 852.816 320.989 846.595 324.315 841.687 328.61 837.945 334.131 835.482 340.779 834.326 347.828 845.31 343.072 845.311 341.606 845.686 337.481C845.69 337.444 845.697 337.408 845.708 337.373L846.896 333.685C846.906 333.653 846.92 333.622 846.937 333.592L848.812 330.28C848.831 330.245 848.854 330.213 848.881 330.185L851.569 327.31C851.592 327.285 851.617 327.263 851.644 327.244L854.894 324.931C854.92 324.913 854.947 324.897 854.976 324.884L858.664 323.196C858.689 323.185 858.716 323.175 858.743 323.168L862.743 322.105C862.774 322.097 862.805 322.092 862.836 322.09L867.211 321.777C867.367 321.766 867.519 321.829 867.622 321.946 867.726 322.064 867.768 322.223 867.737 322.376L858.421 367.951 857.289 372.853 856.143 376.788 854.893 379.663C854.881 379.689 854.868 379.714 854.852 379.738L853.54 381.738C853.509 381.784 853.471 381.826 853.427 381.86L851.802 383.11C851.767 383.136 851.729 383.158 851.689 383.175L849.439 384.112C849.409 384.125 849.378 384.134 849.347 384.141L846.597 384.703C846.573 384.708 846.549 384.711 846.524 384.713L843.122 384.901 842.04 384.901 834.666 393.57 879.26 395.464 881.592 395.525 885.802 394.915 890.136 393.145 894.601 390.153 899.22 386.02 899.956 381.606 896.435 383.614 892.122 385.364C892.1 385.373 892.077 385.381 892.054 385.386L887.741 386.449C887.716 386.455 887.691 386.459 887.666 386.462L883.359 386.838 878.603 386.713 854.978 385.838C854.754 385.83 854.562 385.673 854.51 385.454 854.458 385.236 854.558 385.009 854.755 384.901L858.339 382.926 861.496 380.76 864.066 378.373 866.129 375.771 867.911 372.769 869.397 369.245 870.696 365.293 871.694 360.803 872.631 356.115C872.678 355.882 872.883 355.713 873.122 355.713L874.759 355.714 877.353 355.778 880.919 356.091 885.49 356.529 890.78 357.123 895.89 350.776 874.059 350.776C873.909 350.776 873.767 350.708 873.672 350.592 873.577 350.476 873.539 350.323 873.569 350.176L879.319 322.051C879.367 321.818 879.572 321.651 879.809 321.651L880.502 321.651 886.087 321.714 890.683 321.967 894.303 322.415 896.865 323.04C896.893 323.047 896.92 323.056 896.945 323.067L898.82 323.88C898.862 323.898 898.901 323.921 898.936 323.95L900.249 325.012C900.29 325.045 900.325 325.085 900.353 325.128L901.166 326.378C901.203 326.436 901.229 326.501 901.24 326.569L901.49 328.069C901.496 328.107 901.498 328.146 901.496 328.184L901.368 330.082 901.119 332.276 905.309 332.276 909.831 316.713ZM879.224 315.69 910.497 315.713C910.654 315.714 910.802 315.788 910.897 315.913 910.991 316.039 911.021 316.202 910.977 316.353L906.164 332.915C906.102 333.129 905.907 333.276 905.684 333.276L900.559 333.276C900.417 333.276 900.281 333.215 900.186 333.109 900.091 333.003 900.046 332.861 900.062 332.72L900.375 329.97 900.494 328.176 900.271 326.836 899.558 325.74 898.36 324.77 896.587 324.002 894.066 323.387 890.561 322.96 886.032 322.713 880.491 322.651 880.217 322.651 874.672 349.776 896.934 349.776C897.127 349.776 897.302 349.886 897.385 350.06 897.468 350.234 897.444 350.44 897.324 350.59L891.386 357.965C891.279 358.098 891.111 358.167 890.941 358.148L885.378 357.523 880.824 357.086 877.266 356.774 874.734 356.713 873.532 356.713 872.674 360.999 871.672 365.509 870.347 369.557 868.833 373.158 866.99 376.281 864.826 379.024C864.811 379.044 864.793 379.062 864.774 379.08L862.149 381.517C862.131 381.534 862.112 381.549 862.092 381.563L858.905 383.751 856.814 384.905 878.64 385.714 883.385 385.839 887.539 385.469 891.78 384.424 896.059 382.688 900.374 380.217C900.541 380.121 900.749 380.13 900.907 380.241 901.066 380.351 901.147 380.543 901.115 380.733L900.177 386.358C900.159 386.47 900.102 386.573 900.018 386.649L895.268 390.899 890.65 394.004C890.622 394.023 890.592 394.039 890.561 394.051L886.123 395.864C886.086 395.879 886.046 395.89 886.006 395.896L881.693 396.521C881.665 396.525 881.637 396.527 881.609 396.526L879.234 396.463 833.6 394.526C833.41 394.517 833.24 394.401 833.163 394.226 833.087 394.051 833.117 393.848 833.241 393.702L841.428 384.077C841.523 383.965 841.663 383.901 841.809 383.901L843.122 383.901 846.432 383.716 849.099 383.171 851.244 382.277 852.75 381.119 853.993 379.225 855.226 376.389 856.329 372.574 857.447 367.726 866.625 322.822 862.954 323.084 859.041 324.123 855.435 325.773 852.265 328.029 849.653 330.824 847.832 334.04 846.677 337.626 846.307 341.696 846.309 343.401C846.309 343.6 846.191 343.781 846.008 343.86L833.883 349.11C833.715 349.182 833.521 349.158 833.377 349.045 833.232 348.933 833.161 348.75 833.191 348.57L834.503 340.57C834.508 340.538 834.517 340.507 834.528 340.477L837.028 333.727C837.042 333.69 837.06 333.654 837.083 333.62L840.895 327.995C840.919 327.96 840.948 327.928 840.98 327.9L845.98 323.525C846.009 323.5 846.04 323.478 846.073 323.46L852.386 320.085C852.413 320.07 852.442 320.058 852.472 320.049L860.034 317.674C860.057 317.667 860.081 317.661 860.105 317.657L869.042 316.22ZM798.543 315.69 806.327 315.964 812.924 316.654 818.355 317.85C818.379 317.856 818.402 317.863 818.425 317.871L822.675 319.496C822.709 319.509 822.74 319.525 822.77 319.545L826.02 321.67C826.063 321.698 826.101 321.732 826.133 321.771L828.445 324.583C828.479 324.624 828.505 324.669 828.525 324.718L829.9 328.218C829.916 328.26 829.927 328.303 829.931 328.347L830.369 332.41C830.372 332.443 830.373 332.476 830.37 332.509L830.057 335.946C830.055 335.975 830.05 336.003 830.042 336.03L829.105 339.53C829.099 339.553 829.091 339.576 829.081 339.598L827.581 343.098C827.571 343.121 827.559 343.144 827.546 343.166L825.358 346.666 822.698 349.965 819.85 352.817 816.741 355.234C816.72 355.25 816.697 355.264 816.674 355.277L813.362 357.09 808.641 359.231 803.648 360.815 798.398 361.768 792.963 362.088 790.497 362.088 790.449 362.062 790.425 362.186 788.163 369.671C788.152 369.705 788.138 369.738 788.121 369.77L784.558 376.145C784.539 376.179 784.516 376.21 784.49 376.239L779.615 381.552C779.588 381.581 779.558 381.607 779.525 381.629L774.596 384.931 792.756 385.276C792.947 385.28 793.119 385.392 793.2 385.564 793.28 385.737 793.256 385.941 793.136 386.09L785.386 395.715C785.287 395.838 785.135 395.907 784.976 395.901L751.601 394.526C751.41 394.518 751.24 394.401 751.163 394.226 751.087 394.05 751.117 393.846 751.242 393.701L759.429 384.138C759.524 384.027 759.663 383.963 759.809 383.963L760.184 383.963 762.434 383.963 765.352 383.719 767.745 383.12 769.681 382.006 771.085 380.485 772.304 378.168 773.528 374.852 774.765 370.453 775.945 364.983 784.5 322.947 780.888 323.209 776.977 324.187 773.437 325.835 770.267 328.09 767.653 330.948 765.77 334.227 764.615 337.936 764.245 342.132 764.309 343.504C764.318 343.712 764.197 343.904 764.005 343.986L751.818 349.174C751.649 349.245 751.456 349.219 751.312 349.106 751.168 348.993 751.098 348.81 751.129 348.63L752.504 340.505C752.509 340.474 752.517 340.443 752.528 340.414L755.091 333.539C755.105 333.501 755.123 333.466 755.145 333.433L758.958 327.808C758.982 327.773 759.01 327.74 759.042 327.712L764.042 323.337C764.073 323.31 764.108 323.287 764.145 323.268L770.52 320.018C770.546 320.005 770.573 319.994 770.601 319.985L778.414 317.61C778.437 317.603 778.462 317.597 778.486 317.594L787.799 316.219ZM903.863 292.585 898.132 295.89 892.215 299.502 887.177 302.922 883.246 305.945 881.857 310.955 884.703 309.395 889.396 306.955 894.834 304.205 900.842 301.17ZM904.534 291.044C904.715 290.94 904.942 290.959 905.103 291.092 905.264 291.226 905.324 291.446 905.255 291.643L901.718 301.692C901.676 301.814 901.587 301.914 901.472 301.972L895.285 305.097 889.847 307.847 885.165 310.282 881.3 312.402C881.123 312.499 880.906 312.48 880.749 312.355 880.591 312.231 880.524 312.024 880.577 311.83L882.327 305.517C882.356 305.413 882.418 305.321 882.504 305.255L886.567 302.13 891.653 298.675 897.611 295.037Z" fill="#333F50" fill-rule="evenodd"/><path d="M876.391 313.429 907.62 313.429 902.78 329.981 897.689 329.981C897.962 327.883 898.099 326.346 898.099 325.37 898.099 323.197 896.695 321.647 893.887 320.722 891.079 319.796 885.657 319.333 877.621 319.333L876.932 319.333 871.185 347.494 894.04 347.494 888.113 354.882C879.996 353.892 874.586 353.397 871.883 353.397L870.22 353.397 869.307 358.091C868.085 364.436 866.215 369.481 863.698 373.224 861.182 376.967 857.323 380.08 852.123 382.562L875.714 383.409 880.46 383.543C886.15 383.543 891.906 381.645 897.73 377.849L896.818 383.467C890.411 389.962 884.377 393.209 878.716 393.209L876.342 393.158 830.713 391.231 838.899 381.599 840.213 381.599C845.092 381.599 848.431 380.615 850.229 378.647 852.027 376.678 853.624 372.143 855.019 365.042L864.329 319.49C858.269 319.49 853.182 321.277 849.069 324.851 844.956 328.425 842.899 333.097 842.899 338.866L842.899 340.631 830.816 345.847C831.697 334.442 835.893 326.188 843.405 321.084 850.917 315.981 861.912 313.429 876.391 313.429ZM795.709 313.429C806.738 313.429 814.707 314.669 819.615 317.148 824.524 319.628 826.978 323.804 826.978 329.677 826.978 334.252 825.33 338.894 822.033 343.605 818.736 348.315 814.8 351.737 810.223 353.87 804.114 357.139 797.395 358.773 790.066 358.773L787.638 358.773 790.045 353.548 791.55 353.548C797.829 353.548 803.083 351.496 807.312 347.391 811.541 343.286 813.655 338.18 813.655 332.074 813.655 323.127 807.474 318.654 795.111 318.654L787.031 359.296C784.928 369.983 779.289 377.751 770.113 382.6L789.831 382.981 782.131 392.582 748.713 391.233 756.951 381.663 757.318 381.663 759.52 381.694C763.879 381.694 766.908 380.461 768.607 377.994 770.306 375.527 771.96 370.292 773.57 362.289L782.26 319.594C776.237 319.594 771.161 321.38 767.034 324.953 762.906 328.526 760.843 333.308 760.843 339.3L760.894 340.718 748.765 345.935C749.752 334.227 753.996 325.883 761.497 320.901 768.998 315.92 780.402 313.429 795.709 313.429ZM901.925 288.717 898.369 298.709C889.608 303.086 882.869 306.565 878.153 309.145L879.932 302.891C884.71 298.864 892.041 294.139 901.925 288.717Z" stroke="#333F50" stroke-linejoin="round" stroke-miterlimit="10" fill="#9900CC" fill-rule="evenodd"/><text fill="#000000" fill-opacity="0" font-family="Arial,Arial_MSFontService,sans-serif" font-size="104.492" x="748.713" y="380.147">P</text><path d="M0 0 20.5096 32.5448" stroke="#000000" stroke-width="0.666667" stroke-miterlimit="8" fill="none" fill-rule="evenodd" transform="matrix(-1 0 0 1 947.01 295.5)"/><path d="M926.5 329.5 940.869 355.29" stroke="#000000" stroke-width="0.666667" stroke-miterlimit="8" fill="none" fill-rule="evenodd"/><path d="M0 0 23.334 28.8605" stroke="#000000" stroke-width="0.666667" stroke-miterlimit="8" fill="none" fill-rule="evenodd" transform="matrix(-1 0 0 1 940.834 356.5)"/><path d="M918.5 385.5 954.115 404.865" stroke="#000000" stroke-width="0.666667" stroke-miterlimit="8" fill="none" fill-rule="evenodd"/><path d="M940.5 294.938 945.084 294.938 946.5 291.5 947.916 294.938 952.5 294.938 948.792 297.062 950.208 300.5 946.5 298.375 942.792 300.5 944.208 297.062Z" stroke="#000000" stroke-width="1.33333" stroke-miterlimit="8" fill-rule="evenodd"/><path d="M946.5 403.938 951.466 403.938 953 400.5 954.534 403.938 959.5 403.938 955.483 406.062 957.017 409.5 953 407.375 948.983 409.5 950.517 406.062Z" stroke="#000000" stroke-width="1.33333" stroke-miterlimit="8" fill-rule="evenodd"/><path d="M912.5 383.938 917.084 383.938 918.5 380.5 919.916 383.938 924.5 383.938 920.792 386.062 922.208 389.5 918.5 387.375 914.792 389.5 916.208 386.062Z" stroke="#000000" stroke-width="1.33333" stroke-miterlimit="8" fill-rule="evenodd"/><path d="M934.5 354.32 939.466 354.32 941 350.5 942.534 354.32 947.5 354.32 943.483 356.68 945.017 360.5 941 358.139 936.983 360.5 938.517 356.68Z" stroke="#000000" stroke-width="1.33333" stroke-miterlimit="8" fill-rule="evenodd"/><path d="M921.5 327.32 926.084 327.32 927.5 323.5 928.916 327.32 933.5 327.32 929.792 329.68 931.208 333.5 927.5 331.139 923.792 333.5 925.208 329.68Z" stroke="#000000" stroke-width="1.33333" stroke-miterlimit="8" fill-rule="evenodd"/></g></svg>